<svg role="img" viewBox="0 0 256 256" xmlns="http://www.w3.org/2000/svg" id="Langchain--Streamline-Simple-Icons" height="256" width="256">
  <desc>
    Langchain Streamline Icon: https://streamlinehq.com
  </desc>
  <title>LangChain</title>
  <path d="M65.05386666666666 63.120000000000005C29.18293333333333 63.120000000000005 0 92.22613333333334 0 128s29.184 64.88 65.05386666666666 64.88h125.89226666666667C226.81706666666665 192.88 256 163.77386666666666 256 128s-29.184 -64.88 -65.05386666666666 -64.88ZM63.75893333333333 83.744c5.258666666666667 0.13226666666666664 10.879999999999999 2.6624 13.578666666666665 6.6432 3.917866666666667 4.898133333333333 5.096533333333333 11.379199999999999 9.540266666666666 15.927466666666668 5.9776 6.5258666666666665 12.789333333333333 12.272 18.305066666666665 19.221333333333334 5.218133333333333 6.350933333333334 8.945066666666666 13.799466666666667 12.1984 21.306666666666665 1.3269333333333333 2.490666666666667 1.3408 5.5488 3.3066666666666666 7.6768 0.9685333333333334 1.2842666666666664 5.702399999999999 4.781866666666666 4.6752 6.021333333333333 0.592 1.2842666666666664 5.015466666666667 3.0506666666666664 3.480533333333333 4.295466666666666 -2.0736 0.42666666666666664 -4.4042666666666666 0.5077333333333334 -5.990399999999999 -1.1456 -0.5855999999999999 1.3439999999999999 -1.952 0.6357333333333333 -3.006933333333333 0.4608a42.666666666666664 42.666666666666664 0 0 0 -0.26666666666666666 0.7850666666666666c-3.5071999999999997 0.23359999999999997 -6.1376 -3.3343999999999996 -7.808 -6.0266666666666655 -3.3183999999999996 -1.792 -7.0847999999999995 -2.882133333333333 -10.474666666666666 -4.757333333333333 -0.19413333333333332 3.0879999999999996 0.4821333333333333 6.917333333333333 -2.464 8.909866666666666 -0.14933333333333332 5.936 8.9984 0.6997333333333333 9.8368 5.124266666666666 -0.6506666666666666 0.07146666666666666 -1.3717333333333332 -0.10133333333333333 -1.8922666666666665 0.39786666666666665 -2.3882666666666665 2.3167999999999997 -5.125333333333333 -1.7546666666666666 -7.8773333333333335 -0.07466666666666666 -3.694933333333333 1.8559999999999999 -4.061866666666667 3.3717333333333332 -8.635733333333333 3.754666666666666 -0.25279999999999997 -0.38293333333333335 -0.15253333333333333 -0.6314666666666666 0.06293333333333333 -0.8650666666666667 1.2874666666666665 -1.4922666666666666 1.3813333333333333 -3.2490666666666663 3.5797333333333334 -3.885866666666667 -2.2634666666666665 -0.3562666666666666 -4.158933333333334 0.8885333333333333 -6.065066666666667 1.8741333333333332 -2.4778666666666664 1.0133333333333332 -2.4576 -2.283733333333333 -6.269866666666666 0.17493333333333333 -0.4224 -0.34346666666666664 -0.22186666666666666 -0.6559999999999999 0.0192 -0.9216 0.9685333333333334 -1.1808 2.2421333333333333 -1.3546666666666667 3.6799999999999997 -1.2885333333333333 -7.072 -3.931733333333333 -10.401066666666665 4.8074666666666666 -13.667200000000001 0.4608 -0.9813333333333333 0.2592 -1.3493333333333333 1.1392 -1.968 1.7621333333333333 -0.5333333333333333 -0.5845333333333333 -0.13119999999999998 -1.2928 -0.1056 -1.9808 -0.6378666666666666 -0.29866666666666664 -1.4464 -0.43733333333333335 -1.2576 -1.4570666666666665 -1.2490666666666665 -0.42133333333333334 -2.1205333333333334 0.31466666666666665 -3.0506666666666664 1.0154666666666667 -0.8394666666666667 -0.6485333333333333 0.5674666666666666 -1.5914666666666666 0.8277333333333333 -2.2666666666666666 0.7487999999999999 -1.2970666666666666 2.453333333333333 -0.26666666666666666 3.3183999999999996 -1.2010666666666667 2.4597333333333333 -1.3952 5.888 0.8682666666666666 8.698666666666666 0.4853333333333333 2.1653333333333333 0.27199999999999996 4.846933333333333 -1.9466666666666665 3.761066666666667 -4.16 -2.315733333333333 -2.9514666666666667 -1.909333333333333 -6.811733333333333 -1.9616 -10.341333333333333 -0.28586666666666666 -2.0576 -5.237333333333333 -4.674133333333333 -6.668799999999999 -6.892799999999999 -1.7695999999999998 -1.9978666666666665 -3.1466666666666665 -4.3168 -4.5258666666666665 -6.594133333333333 -4.9770666666666665 -9.608533333333334 -3.4111999999999996 -21.956266666666664 -9.682133333333333 -30.876799999999996 -2.8373333333333335 1.5637333333333334 -6.533333333333333 0.8255999999999999 -8.979199999999999 -1.2693333333333332 -1.3205333333333331 1.2 -1.3781333333333334 2.7711999999999994 -1.4826666666666668 4.4384 -3.1679999999999997 -3.159466666666667 -2.7658666666666663 -9.1296 -0.23466666666666663 -12.645333333333333 1.0335999999999999 -1.3888 2.2687999999999997 -2.5312 3.648 -3.5370666666666666 0.31146666666666667 -0.22719999999999999 0.4170666666666667 -0.4469333333333333 0.4106666666666666 -0.7968 1.2522666666666666 -5.618133333333333 6.148266666666666 -7.883733333333333 11.406933333333331 -7.7514666666666665m132.3424 4.906666666666666c5.946666666666666 0 11.526399999999999 2.3029333333333333 15.722666666666665 6.487466666666666s6.506666666666666 9.754666666666665 6.506666666666666 15.684266666666666c0 5.930666666666667 -2.3114666666666666 11.498666666666667 -6.506666666666666 15.677866666666667v0.0063999999999999994l-9.621333333333332 9.594666666666665a22.186666666666667 22.186666666666667 0 0 1 -9.170133333333332 5.510399999999999l-0.17493333333333333 0.050133333333333335 -0.06186666666666666 0.17493333333333333a21.866666666666664 21.866666666666664 0 0 1 -5.055999999999999 7.7951999999999995l-9.6192 9.594666666666665c-4.196266666666666 4.1856 -9.781333333333333 6.488533333333333 -15.727999999999998 6.488533333333333s-11.526399999999999 -2.304 -15.722666666666665 -6.488533333333333c-8.671999999999999 -8.647466666666666 -8.671999999999999 -22.7136 0 -31.362133333333333l9.620266666666666 -9.594666666666665a21.930666666666667 21.930666666666667 0 0 1 9.152 -5.4858666666666664l0.18133333333333335 -0.05653333333333333 0.06186666666666666 -0.16853333333333334a22.08 22.08 0 0 1 5.0687999999999995 -7.826133333333333l9.6192 -9.594666666666665c4.196266666666666 -4.1856 9.782399999999999 -6.488533333333333 15.727999999999998 -6.488533333333333zm0 9.562666666666665a12.586666666666666 12.586666666666666 0 0 0 -8.947199999999999 3.6928l-9.6192 9.594666666666665a12.597333333333333 12.597333333333333 0 0 0 -3.6554666666666664 9.8688l0.05653333333333333 0.6101333333333333c0.34453333333333336 2.8287999999999998 1.5893333333333333 5.380266666666666 3.598933333333333 7.3781333333333325 1.3866666666666667 1.3823999999999999 2.9151999999999996 2.2549333333333332 4.769066666666666 2.8650666666666664a9.6 9.6 0 0 1 0.14933333333333332 1.6874666666666667 9.429333333333332 9.429333333333332 0 0 1 -2.7829333333333333 6.724266666666666l-0.5909333333333333 0.5909333333333333c-3.2138666666666666 -1.0965333333333334 -5.893333333333333 -2.6986666666666665 -8.3136 -5.111466666666667a21.973333333333333 21.973333333333333 0 0 1 -6.145066666666666 -11.6992l-0.1056 -0.6165333333333333 -0.49173333333333336 0.3925333333333333a11.733333333333334 11.733333333333334 0 0 0 -0.9343999999999999 0.8469333333333333l-9.625599999999999 9.594666666666665c-4.9312 4.917333333333334 -4.9312 12.927999999999999 0 17.845333333333333 2.4650666666666665 2.458666666666667 5.706666666666667 3.690666666666666 8.9536 3.6917333333333335 3.2458666666666667 0 6.4821333333333335 -1.2330666666666665 8.947199999999999 -3.6928l9.620266666666666 -9.594666666666665c4.9312 -4.917333333333334 4.9312 -12.920533333333333 0 -17.845333333333333a12.479999999999999 12.479999999999999 0 0 0 -4.658133333333333 -2.932266666666666 10.666666666666666 10.666666666666666 0 0 1 -0.14933333333333332 -1.7184c0 -2.763733333333333 1.0912 -5.386666666666667 3.0944000000000003 -7.384533333333334 3.2202666666666664 1.0965333333333334 6.079999999999999 2.8735999999999997 8.492799999999999 5.279999999999999 3.207466666666667 3.198933333333333 5.326933333333333 7.242666666666667 6.139733333333333 11.6992l0.112 0.6165333333333333 0.4853333333333333 -0.39786666666666665a11.733333333333334 11.733333333333334 0 0 0 0.9461333333333333 -0.8469333333333333l9.621333333333332 -9.595733333333332c4.930133333333333 -4.917333333333334 4.936533333333333 -12.932266666666665 0 -17.850666666666665a12.586666666666666 12.586666666666666 0 0 0 -8.954666666666666 -3.6928Zm-106.37866666666667 55.004799999999996 -0.0063999999999999994 0.0063999999999999994c-0.8458666666666665 3.2832 -1.1178666666666666 8.872533333333333 -5.397333333333333 9.034666666666666 -0.352 1.8944 1.3098666666666667 2.6079999999999997 2.832 1.9989333333333335 1.5039999999999998 -0.688 2.219733333333333 0.5418666666666666 2.7274666666666665 1.7674666666666665 2.3221333333333334 0.3381333333333333 5.7536 -0.7733333333333332 5.883733333333333 -3.5178666666666665 -3.466666666666667 -1.9914666666666667 -4.536533333333333 -5.7791999999999994 -6.039466666666667 -9.2896" fill="#000000" stroke-width="10.6667"></path>
</svg>